<?xml version="1.0" encoding="utf-8"?>
<!-- Generator: Adobe Illustrator 24.2.1, SVG Export Plug-In . SVG Version: 6.00 Build 0)  -->
<svg version="1.1" id="icon-login_btn" xmlns="http://www.w3.org/2000/svg" xmlns:xlink="http://www.w3.org/1999/xlink" x="0px"
	 y="0px" viewBox="0 0 512 468" style="enable-background:new 0 0 512 468;" xml:space="preserve">
<style type="text/css">
	.st0{fill:#FFFFFF;}
</style>
<path class="st0" d="M9.9,249.5c0,88.5,47.1,170.1,123.7,214.3c7.6,4.3,17.4,1.8,21.7-5.8s1.8-17.4-5.8-21.7l0,0
	C82.8,397.7,41.7,326.5,41.7,249.5c0-119,96.7-215.7,215.7-215.7s215.7,96.7,215.7,215.7c0,77.1-41.1,148.3-107.8,186.9
	c-7.6,4.3-10.2,14.1-5.8,21.7s14.1,10.2,21.7,5.8c76.6-44.2,123.7-126,123.7-214.4C504.9,112.7,394.2,2,257.4,2S9.9,112.7,9.9,249.5
	z"/>
<path class="st0" d="M311.1,236.9c22.8-17.2,36.4-44.2,36.4-72.9c0-50.3-40.9-91.2-91.2-91.2s-91.2,40.9-91.2,91.2
	c0,28.7,13.8,55.7,36.4,72.9c-50.7,21.7-84.2,71.7-84.2,127.5c0,8.2,6.7,14.8,14.8,14.8c6.4,0,11.7-3.9,13.9-9.5h1.1v-5.3
	c0-60.3,49-109.2,109.2-109.2s109.2,49,109.2,109.2l0.1,5.3h1c2.1,5.6,7.5,9.5,13.9,9.5c8.2,0,14.8-6.7,14.8-14.8
	C395.2,308.7,361.9,258.6,311.1,236.9z M256.3,101.4c33.9,0,61.5,28.1,61.5,62.6c0,31-22.6,57.5-52.7,62h-0.4
	c-2.6-0.2-5.5-0.4-8.4-0.4c-2.4,0-4.9,0.1-7.1,0.3c-0.5,0-1.1,0.1-1.7,0.1c-30.1-4.4-52.8-30.9-52.8-62
	C194.8,129.5,222.4,101.4,256.3,101.4z"/>
</svg>
