<?xml version="1.0" encoding="utf-8"?>

<svg id="icon-login_btn" viewBox="0 0 512 468" version="1.0" xmlns="http://www.w3.org/2000/svg" xmlns:xlink="http://www.w3.org/1999/xlink" x="0px" y="0px">

<style type="text/css">
	.st0{fill:#ffffff;}
</style>

<path class="st0" d="M278 272.2a15 15 0 0 0 23.64 12.27l54.78-38.62a15 15 0 0 0 0-24.52l-54.78-38.62A15 15 0 0 0 278 195v23.62H15a15 15 0 0 0 0 30h263zM278.4 0A233.6 233.6 0 0 0 76.08 116.78a15 15 0 1 0 26 15A203.56 203.56 0 0 1 278.4 30C390.68 30 482 121.33 482 233.6s-91.33 203.6-203.6 203.6A203.57 203.57 0 0 1 102 335.37a15 15 0 0 0-26 15 233.57 233.57 0 0 0 202.4 116.8c129.1 0 233.6-104.47 233.6-233.6S407.52 0 278.4 0z">
</path>

</svg>